<?xml version="1.0" encoding="utf-8" ?>
<svg xmlns="http://www.w3.org/2000/svg" xmlns:xlink="http://www.w3.org/1999/xlink" width="1228" height="1228">
	<path fill="#111010" transform="scale(2.39844 2.39844)" d="M0 0L0 512L512 512L512 0L0 0Z"/>
	<path fill="#10E06F" transform="scale(2.39844 2.39844)" d="M273.688 119.092L219.193 119.01C218.72 112.303 215.86 108.758 215.26 103.303C214.372 95.2332 220.119 89.9515 227.756 89.1721C229.983 88.9326 232.38 89.0945 234.627 89.0924L263.208 89.087C268.957 89.0898 275.796 88.3289 280.578 92.2069C291.003 100.664 281.475 109.447 282.558 119.128L273.688 119.092Z"/>
	<path fill="#10E06F" transform="scale(2.39844 2.39844)" d="M302.713 123.661L298.295 123.507C297.338 119.768 297.759 114.748 298.242 111.004C301.135 110.623 304.182 110.774 307.097 110.772L321.342 110.724L321.408 89.5495C325.269 88.6479 330.765 88.704 334.63 89.5404L334.806 110.736L346.942 110.787L347.352 89.3613C351.701 89.0529 355.746 89.1994 360.092 89.5015L360.309 110.674L373.631 110.798L373.25 123.585L312.407 123.958C309.174 123.952 305.925 124.075 302.713 123.661Z"/>
	<path fill="#10E06F" transform="scale(2.39844 2.39844)" d="M366.347 144.738L297.277 144.773L297.905 131.627C298.502 131.363 299.19 131.367 299.837 131.311L304.675 131.054L372.843 131.4C373.451 135.794 373.238 140.109 373 144.522L366.347 144.738Z"/>
	<path fill="#10E06F" transform="scale(2.39844 2.39844)" d="M215.018 200.952C218.7 199.157 217.557 196.698 217.555 192.624L217.545 155.347C217.545 149.205 217.384 143.037 217.82 136.908L246.137 136.871C245.748 140.594 245.916 144.417 245.914 148.16L245.901 227.773C241.774 228.367 237.619 228.627 233.521 229.455C200.511 236.122 174.213 266.172 171.753 299.717C170.257 320.132 177.776 341.608 191.232 356.916C218.446 387.882 269.683 392.799 300.985 365.151C318.207 349.939 328.425 331.929 329.821 308.672C331.382 282.67 316.614 254.926 294.937 240.478C286.021 234.536 271.826 228.837 260.851 228.174L260.97 141.63C260.95 140.273 260.389 138.089 260.876 136.83L261.545 136.686C268.925 136.066 277.104 137.512 285.349 136.59C285.059 139.844 285.169 143.136 285.169 146.401L285.173 189.896C285.168 192.214 284.198 197.26 285.41 199.265C286.405 200.913 293.903 203.527 295.865 204.414L302.321 207.512C337.857 225.806 363.099 266.252 361.99 306.372C360.803 349.289 336.685 388.076 297.072 405.911C255.958 424.421 206.289 416.329 173.65 385.264C126.118 340.024 128.718 262.31 179.374 220.537C187.623 213.734 196.6 208.303 206.496 204.242C209.315 203.085 212.233 202.192 215.018 200.952Z"/>
	<path fill="#10E06F" transform="scale(2.39844 2.39844)" d="M339.112 165.796L335.368 165.822L335.333 181.766L322.108 181.944L321.932 166.653C318.628 166.065 314.944 166.277 311.577 166.276L297.56 166.252L297.935 152.298C301.702 151.85 305.594 152.053 309.389 152.053L330.706 152.003L359.244 152.041C363.778 152.042 368.522 151.75 373.018 152.352L372.889 165.837L360.347 166.032L360.112 181.59C355.62 181.984 351.26 181.661 346.782 181.383L346.91 165.879L339.112 165.796Z"/>
</svg>
