<?xml version="1.0" encoding="utf-8" ?>
<svg xmlns="http://www.w3.org/2000/svg" xmlns:xlink="http://www.w3.org/1999/xlink" width="928" height="928">
	<path fill="#FD951D" transform="scale(1.81308 1.81308)" d="M253.437 486.453L194 486.349C179.694 486.343 164.58 487.227 151.125 481.485C131.365 473.051 117.483 453.094 115.712 431.793C115.365 427.619 115.447 423.433 115.444 419.249L115.423 288.983C115.429 275.612 115.018 262.184 116.441 248.872C121.004 206.181 144.32 170.106 180.111 147.254C185.772 143.639 191.391 140.083 197.685 137.65C197.735 133.694 198.53 129.553 199.161 125.657L216.328 23.6063L256.877 23.375C260.615 23.5094 294.385 23.2415 294.949 23.8201C295.439 24.3225 310.451 113.167 312.257 123.335L314.294 134.964C314.983 139.016 314.686 138.179 318.384 139.944L327.139 144.511C366.036 166.606 393.464 210.98 395.211 255.922L395.304 403.444C395.295 415.255 395.911 427.269 393.633 438.915C389.361 460.755 373.365 478.852 351.645 484.577C345.062 486.312 338.462 486.327 331.717 486.33L253.437 486.453ZM247.742 66.0975L235.62 157.277C234.901 162.153 234.359 167.102 233.008 171.853C227.438 173.583 221.71 174.243 216.166 176.275C180.984 189.167 158.317 224.158 156.288 260.875C156.004 265.999 156.233 271.11 156.237 276.236L156.328 295.641C178.3 300.155 198.633 298.901 217.649 286.39L225.529 280.771C226.924 279.738 228.362 278.502 229.9 277.7C224.274 309.018 204.92 335.501 171.417 336.936C166.23 337.158 161.005 336.711 155.825 336.455C155.871 338.276 156.19 340.065 156.228 341.875L156.232 417.395C156.234 429.118 155.755 440.76 170.375 444.272L170.804 444.381C174.424 445.241 178.994 444.962 182.723 444.965L252.688 444.931L328.065 444.97C331.672 444.964 335.634 445.211 339.182 444.46C354.792 441.155 354.218 425.428 354.229 413.389L354.232 319.262C331.634 311.34 306.106 321.034 289.01 336.467C289.673 331.554 290.984 326.99 292.552 322.29C303.077 290.734 321.912 278.231 354.923 278.282L354.834 261.111C354.402 253.189 353.424 245.077 351.314 237.422C342.023 203.713 312.435 177.611 278.283 171.139C277.788 171.045 277.988 170.531 277.945 170.061L266.757 89.3097C265.682 81.7795 263.85 74.1537 263.144 66.607L247.742 66.0975Z"/>
	<path fill="#FD951D" transform="scale(1.81308 1.81308)" d="M216.12 352.527L216.089 352.19C219.147 345.959 236.946 298.43 237.94 297.931C238.336 297.732 239.698 297.858 240.213 297.846L247.375 297.494C265.075 295.849 280.083 290.399 294.631 280.471L294.92 280.752C294.575 284.226 292.648 288.156 291.509 291.473C278.555 329.173 272.969 341.096 231.171 349.8C226.161 350.843 221.22 352.012 216.12 352.527Z"/>
</svg>
